# xmcd
#
# Track frame offsets:
#	150
#	15204
#	32214
#	48829
#	63846
#	78105
#	92077
#	108167
#	123968
#	140654
#	157527
#	174715
#	187007
#	201839
#	218350
#	230260
#	243321
#	256299
#
# Disc length: 3625 seconds
#
# Revision: 0
# Processed by: cddbd v1.5.2PL0 Copyright (c) Steve Scherf et al.
# Submitted via: EZCDAudioConverter 7.0.5.1
#
DISCID=d90e2712
DTITLE=Nu Country Traxx Volume 223 US
DYEAR=2017
DGENRE=country
TTITLE0=Jon Pardi - She Ain't In It
TTITLE1=Tim McGraw and Faith Hill - The Rest Of Our Life
TTITLE2=Brad Paisley - Heaven South
TTITLE3=Presley and Taylor - Heart Over Mind
TTITLE4=James Barker Band - Chills
TTITLE5=Dustin Lynch - I'd Be Jealous Too
TTITLE6=Morgan Evans - Kiss Somebody
TTITLE7=Shania Twain - We Got Something They Don't
TTITLE8=Maren Morris ft. Vince Gill - Dear Hate
TTITLE9=Raven Cliff - Voodoo Whiskey
TTITLE10=Tyler Jordan - Why Her
TTITLE11=Brad Puckett - Waiting On Thunder
TTITLE12=Blane Howard - Promise To Love Her
TTITLE13=Leaving Thomas - Blame It On The Neon
TTITLE14=Genevieve Fisher - You Me We
TTITLE15=Kamber Cain - Love Story That I've Already Read
TTITLE16=Eric Ethridge - Makin' Me Crazy
TTITLE17=Abi - Put A Bow On It
EXTD=
EXTT0=
EXTT1=
EXTT2=
EXTT3=
EXTT4=
EXTT5=
EXTT6=
EXTT7=
EXTT8=
EXTT9=
EXTT10=
EXTT11=
EXTT12=
EXTT13=
EXTT14=
EXTT15=
EXTT16=
EXTT17=
PLAYORDER=
